<svg width="18" height="17" viewBox="0 0 18 17" fill="none" xmlns="http://www.w3.org/2000/svg">
  <path d="M3.26038 8.76208C3.25934 8.78222 3.25934 8.80286 3.25934 8.823C3.25934 10.5888 4.12243 12.1598 5.46259 13.1612L6.63418 12.0273L9.00702 9.73083L11.3689 12.0168L12.475 13.0872C12.6706 12.9347 12.8558 12.769 13.0285 12.5923L11.9012 11.5012L9.00026 8.6936V4.33069L11.794 7.03403L14.1554 9.31946L14.5149 9.66739L17.2129 12.2786C16.7634 13.2463 16.1365 14.1199 15.3728 14.8611C15.1954 15.0333 15.0107 15.1984 14.8187 15.3555C13.9338 16.0826 12.9021 16.6465 11.7721 17L9.00026 14.3173V14.3092L9.00858 14.3012C9.00598 14.3017 9.00286 14.3017 9.00026 14.3012C8.99454 14.3017 8.98933 14.3017 8.98361 14.3012L8.9961 14.3133L6.22215 16.998C5.09789 16.6455 4.07041 16.0841 3.18859 15.3621C1.23819 13.7639 0 11.3773 0 8.71072C0 7.77469 0.152432 6.87291 0.434926 6.02751C0.800659 4.9344 1.38281 3.93543 2.13405 3.07896C2.29637 2.89367 2.46701 2.71442 2.64493 2.54272C3.41073 1.80357 4.31336 1.19735 5.31327 0.762314C6.11341 0.413885 6.97546 0.175725 7.87913 0.0669668C8.24642 0.0226579 8.62048 0 9.00026 0C11.7555 0 14.2215 1.19835 15.8727 3.08601C16.6187 3.93946 17.1983 4.93339 17.563 6.02147C17.8465 6.86838 18 7.77218 18 8.71072C18 9.07828 17.9766 9.4403 17.9308 9.79528L15.7973 7.73038L13.4359 5.44495L12.9234 4.949C11.9162 3.97471 10.5319 3.36546 9.00026 3.34532C8.97373 3.34431 8.94668 3.34431 8.92014 3.34431C8.6236 3.34431 8.33226 3.36647 8.04821 3.40876C6.88598 3.58297 5.84133 4.09857 5.0261 4.84729C4.84297 5.01445 4.67233 5.1937 4.5147 5.38302C3.74161 6.30898 3.27391 7.48316 3.26038 8.76208Z" fill="white"/>
</svg>
