<svg width="31" height="30" viewBox="0 0 31 30" fill="none" xmlns="http://www.w3.org/2000/svg">
<path d="M5.6151 15.4625C5.61331 15.498 5.61331 15.5345 5.61331 15.57C5.61331 18.6861 7.09974 21.4584 9.40779 23.2257L11.4255 21.2247L15.5121 17.1721L19.5798 21.2061L21.4847 23.0951C21.8216 22.8259 22.1406 22.5335 22.438 22.2217L20.4964 20.2962L15.5004 15.3416V7.64239L20.3119 12.413L24.3787 16.4461L24.9978 17.0601L29.6444 21.6681C28.8703 23.3759 27.7906 24.9175 26.4753 26.2255C26.1698 26.5293 25.8517 26.8208 25.5211 27.098C23.997 28.3811 22.2203 29.3762 20.2742 30L15.5004 25.2658V25.2516L15.5148 25.2374C15.5103 25.2383 15.5049 25.2383 15.5004 25.2374C15.4906 25.2383 15.4816 25.2383 15.4718 25.2374L15.4933 25.2587L10.7159 29.9964C8.7797 29.3745 7.01015 28.3837 5.49146 27.1096C2.13243 24.2893 0 20.0776 0 15.3719C0 13.72 0.262522 12.1287 0.749039 10.6368C1.37891 8.70776 2.38151 6.94488 3.67531 5.43346C3.95485 5.10648 4.24874 4.79015 4.55516 4.48716C5.87404 3.18277 7.42857 2.11296 9.15064 1.34526C10.5287 0.730385 12.0133 0.310103 13.5696 0.118177C14.2022 0.0399846 14.8464 0 15.5004 0C20.2456 0 24.4925 2.11474 27.3363 5.4459C28.6212 6.95199 29.6193 8.70598 30.2474 10.6261C30.7357 12.1207 31 13.7156 31 15.3719C31 16.0205 30.9597 16.6594 30.8808 17.2858L27.2064 13.6419L23.1396 9.60874L22.257 8.73352C20.5224 7.01419 18.1382 5.93905 15.5004 5.9035C15.4548 5.90173 15.4082 5.90173 15.3625 5.90173C14.8518 5.90173 14.35 5.94082 13.8608 6.01546C11.8592 6.3229 10.0601 7.23277 8.65606 8.55404C8.34068 8.84904 8.04679 9.16536 7.77531 9.49945C6.44389 11.1335 5.6384 13.2056 5.6151 15.4625Z" fill="#595864"/>
</svg>
