<svg width="24" height="25" viewBox="0 0 24 25" fill="none" xmlns="http://www.w3.org/2000/svg">
  <path fill-rule="evenodd" clip-rule="evenodd" d="M12 0.5C5.37231 0.5 0 5.87231 0 12.5C0 19.1277 5.37231 24.5 12 24.5C18.6277 24.5 24 19.1277 24 12.5C24 5.87231 18.6277 0.5 12 0.5ZM17.2677 13.1523C17.4406 12.9792 17.5376 12.7446 17.5376 12.5C17.5376 12.2554 17.4406 12.0208 17.2677 11.8477L13.5754 8.15539C13.4909 8.06469 13.389 7.99195 13.2757 7.9415C13.1625 7.89105 13.0403 7.86392 12.9163 7.86173C12.7924 7.85955 12.6693 7.88235 12.5543 7.92877C12.4394 7.9752 12.335 8.0443 12.2473 8.13195C12.1597 8.21961 12.0906 8.32402 12.0442 8.43896C11.9977 8.5539 11.9749 8.67701 11.9771 8.80095C11.9793 8.92489 12.0064 9.04712 12.0569 9.16035C12.1073 9.27358 12.1801 9.37549 12.2708 9.46L14.3877 11.5769H7.38462C7.1398 11.5769 6.90501 11.6742 6.7319 11.8473C6.55879 12.0204 6.46154 12.2552 6.46154 12.5C6.46154 12.7448 6.55879 12.9796 6.7319 13.1527C6.90501 13.3258 7.1398 13.4231 7.38462 13.4231H14.3877L12.2708 15.54C12.1801 15.6245 12.1073 15.7264 12.0569 15.8396C12.0064 15.9529 11.9793 16.0751 11.9771 16.199C11.9749 16.323 11.9977 16.4461 12.0442 16.561C12.0906 16.676 12.1597 16.7804 12.2473 16.868C12.335 16.9557 12.4394 17.0248 12.5543 17.0712C12.6693 17.1177 12.7924 17.1405 12.9163 17.1383C13.0403 17.1361 13.1625 17.109 13.2757 17.0585C13.389 17.008 13.4909 16.9353 13.5754 16.8446L17.2677 13.1523Z" fill="white"/>
</svg>
